<?xml version="1.0" encoding="utf-8"?>
<!-- Generator: Adobe Illustrator 15.0.0, SVG Export Plug-In . SVG Version: 6.00 Build 0)  -->
<!DOCTYPE svg PUBLIC "-//W3C//DTD SVG 1.1//EN" "http://www.w3.org/Graphics/SVG/1.1/DTD/svg11.dtd">
<svg version="1.1" id="Layer_1" xmlns="http://www.w3.org/2000/svg" xmlns:xlink="http://www.w3.org/1999/xlink" x="0px" y="0px"
	 width="620.841px" height="279px" viewBox="10.5 250.5 620.841 279" enable-background="new 10.5 250.5 620.841 279"
	 xml:space="preserve">
<g>
	<g>
		<polygon fill="#818181" points="292.42,356.25 288.621,371.75 252.82,257.25 244.82,257.25 285.221,382.35 293.521,382.35 
			296.621,369.05 		"/>
		<polygon fill="#818181" points="325.32,284.45 329.021,269.35 326.021,257.25 315.92,257.25 300.121,324.15 304.121,336.85 
			320.721,265.15 		"/>
		<polygon fill="#818181" points="389.521,257.25 353.32,371.75 337.421,305.45 333.82,320.75 348.421,382.35 356.82,382.35 
			397.221,257.25 		"/>
		<polygon fill="#818181" points="271.42,356.15 267.621,371.75 231.92,257.25 223.82,257.25 264.221,382.35 272.521,382.35 
			275.721,369.05 		"/>
		<polygon fill="#818181" points="304.32,284.45 307.92,269.35 305.021,257.25 295.021,257.25 279.121,324.15 283.121,336.85 
			299.721,265.15 		"/>
		<polygon fill="#818181" points="350.32,337.65 376.12,257.25 368.521,257.25 347.221,324.55 		"/>
		<polygon fill="#818181" points="337.12,356.15 332.421,371.75 316.42,305.45 312.92,320.75 327.521,382.35 335.82,382.35 
			340.12,369.05 		"/>
		<polygon fill="#818181" points="273.82,257.25 265.721,257.25 279.621,300.15 282.92,286.25 		"/>
		<polygon fill="#818181" points="314.82,350.55 309.621,371.75 292.721,317.35 289.521,330.95 306.121,382.35 314.521,382.35 
			318.32,365.75 		"/>
		<polygon fill="#818181" points="349.921,299.55 354.021,286.55 347.021,257.25 337.021,257.25 323.521,313.55 327.12,328.25 
			341.62,265.15 		"/>
		<polygon fill="#818181" points="362.921,324.35 361.62,318.75 357.421,331.65 358.721,337.35 		"/>
		<polygon fill="#818181" points="410.521,257.25 374.221,371.75 370.421,356.25 366.32,369.15 369.32,382.35 377.82,382.35 
			418.221,257.25 		"/>
	</g>
	<g>
		<path fill="#818181" d="M25.521,435.85h9.8l15.9,24.601l15.9-24.601h9.8v52.101h-9.1v-37.4l-16.5,24.601h-0.3l-16.3-24.5v37.3
			h-9.2V435.85z"/>
		<path fill="#818181" d="M107.621,435.55h8.4l23,52.5h-9.7l-5.3-12.6h-24.6l-5.3,12.6h-9.4L107.621,435.55z M120.82,467.25l-9-20.8
			l-9,20.8H120.82z"/>
		<path fill="#818181" d="M141.721,462.05v-0.1c0-14.8,11.1-26.9,26.9-26.9c9.7,0,15.4,3.4,20.4,8.2l-5.8,6.8
			c-4.2-3.8-8.7-6.5-14.5-6.5c-9.9,0-17.1,8.2-17.1,18.4v0.1c0,10.2,7.2,18.5,17.1,18.5c6.4,0,10.5-2.6,15-6.8l5.8,6
			c-5.4,5.7-11.4,9.2-21.2,9.2C153.021,488.85,141.721,477.05,141.721,462.05z"/>
		<path fill="#818181" d="M198.021,435.85h9.1v26.2l24.7-26.2h11.3l-21.6,22.4l22.6,29.6h-11.1l-17.8-23.399l-8.2,8.3v15.1h-9.1
			v-52.1h0.1V435.85z"/>
		<path fill="#818181" d="M270.42,435.85h9.9l12.4,38.601l12.8-38.8h7.8l12.8,38.8l12.4-38.601h9.7l-18.2,52.5h-7.9l-12.8-37.399
			l-12.8,37.399h-7.9L270.42,435.85z"/>
		<path fill="#818181" d="M356.32,435.85h38.601v8.2h-29.5v13.601h26.199v8.199h-26.1v14h29.9v8.2h-39.2v-52.2H356.32z"/>
		<path fill="#818181" d="M406.021,435.85h9.1v43.801h27.5v8.3h-36.6V435.85L406.021,435.85z"/>
		<path fill="#818181" d="M450.82,435.85h19.4c16.3,0,27.7,11.301,27.7,26v0.101c0,14.7-11.301,26.1-27.7,26.1h-19.4V435.85z
			 M470.221,479.65c11,0,18.1-7.301,18.1-17.5v-0.101c0-10.2-7.2-17.7-18.1-17.7h-10.3v35.5h10.3V479.65z"/>
		<path fill="#818181" d="M505.721,462.05v-0.1c0-14.7,11.3-26.9,27.3-26.9s27.2,12.101,27.2,26.8v0.101
			c0,14.7-11.3,26.899-27.3,26.899C517.021,488.85,505.721,476.75,505.721,462.05z M550.721,462.05v-0.1
			c0-10.101-7.3-18.5-17.7-18.5c-10.3,0-17.5,8.3-17.5,18.399v0.101c0,10.1,7.3,18.5,17.7,18.5
			C543.521,480.45,550.721,472.25,550.721,462.05z"/>
		<path fill="#818181" d="M571.021,435.85h8.4l27.899,36v-36h9v52.101h-7.6l-28.7-37.2v37.1h-9V435.85z"/>
	</g>
	<g>
		<path fill="#818181" d="M156.121,505.45h12.5v2.7h-9.5v4.6h8.4v2.7h-8.4v6.8h-3V505.45z"/>
		<path fill="#818181" d="M179.32,514.05L179.32,514.05c0-4.8,3.7-8.7,8.8-8.7s8.7,3.9,8.7,8.7l0,0c0,4.8-3.7,8.7-8.8,8.7
			C182.92,522.55,179.32,518.65,179.32,514.05z M193.82,514.05L193.82,514.05c0-3.3-2.3-6-5.7-6s-5.7,2.7-5.7,6l0,0
			c0,3.3,2.3,6,5.7,6C191.521,519.85,193.82,517.25,193.82,514.05z"/>
		<path fill="#818181" d="M209.221,505.45h7.5c2.2,0,3.8,0.7,4.9,1.6c1,1,1.4,2.2,1.4,3.7l0,0c0,2.7-1.6,4.4-3.9,5l4.5,6.4h-3.5
			l-4.1-5.801l0,0h-3.7v5.801h-3v-16.7H209.221z M216.521,513.85c2.2,0,3.4-1.1,3.4-2.899l0,0c0-1.8-1.4-2.7-3.5-2.7h-4.2v5.6
			H216.521L216.521,513.85z"/>
		<path fill="#818181" d="M251.021,505.45h6.3c5.3,0,9,3.7,9,8.3l0,0c0,4.8-3.7,8.4-9,8.4h-6.3V505.45z M257.32,519.55
			c3.5,0,5.8-2.3,5.8-5.7l0,0c0-3.3-2.3-5.699-5.8-5.699h-3.3v11.399H257.32z"/>
		<path fill="#818181" d="M283.42,505.45h2.7l7.3,16.899h-3.1l-1.8-4.1h-7.9l-1.8,4.1h-2.9L283.42,505.45z M287.621,515.65l-2.9-6.7
			l-2.9,6.7H287.621z"/>
		<path fill="#818181" d="M305.021,505.45h3v16.8h-3V505.45z"/>
		<path fill="#818181" d="M321.221,505.45h3v14.1h8.8v2.7h-11.8V505.45z"/>
		<path fill="#818181" d="M346.921,515.65l-6.7-10.2h3.5l4.8,7.5l4.8-7.5h3.4l-6.7,10.1v6.7h-3v-6.5h-0.1V515.65z"/>
		<path fill="#818181" d="M382.421,505.45h3.1l3.9,12.5l4.1-12.5h2.4l4.1,12.5l3.9-12.5h3.1l-5.8,16.899h-2.601l-4.1-12.1l-4.1,12.1
			h-2.4L382.421,505.45z"/>
		<path fill="#818181" d="M419.021,505.45h12.5v2.6h-9.5v4.4h8.4v2.6h-8.4v4.5h9.7v2.601h-12.5V505.55h-0.2V505.45z"/>
		<path fill="#818181" d="M450.021,505.45h2.7l7.3,16.8h-3.1l-1.801-4.1h-7.8l-1.8,4.1h-3L450.021,505.45z M454.221,515.65l-2.9-6.7
			l-2.899,6.7H454.221z"/>
		<path fill="#818181" d="M471.62,505.45h7.5c2.2,0,3.801,0.7,4.9,1.6c1,1,1.4,2.2,1.4,3.7l0,0c0,2.7-1.601,4.4-4.101,5l4.5,6.4
			h-3.5l-4.1-5.801l0,0h-3.5v5.801h-3v-16.7H471.62z M478.82,513.85c2.2,0,3.4-1.1,3.4-2.899l0,0c0-1.8-1.4-2.7-3.5-2.7h-4.101v5.6
			H478.82L478.82,513.85z"/>
	</g>
</g>
</svg>
